<svg width="128" height="128" viewBox="0 0 128 128" fill="none" xmlns="http://www.w3.org/2000/svg">
	<g clip-path="url(#clip0_2_2)">
		<rect width="128" height="128" rx="10" fill="white" />
		<rect x="37" y="7" width="4" height="115" rx="2" fill="#595959" />
		<rect x="121" y="38" width="4.00001" height="115" rx="2" transform="rotate(90 121 38)" fill="#595959" />
		<rect x="87" y="7" width="3" height="115" rx="1.5" fill="#595959" />
		<rect x="121" y="87" width="4.00001" height="115" rx="2" transform="rotate(90 121 87)" fill="#595959" />
		<path d="M58.4039 78L67.0839 67.46C66.7906 67.78 66.2906 68.0867 65.5839 68.38C64.8772 68.66 64.0106 68.8 62.9839 68.8C61.5039 68.8 60.1172 68.4333 58.8239 67.7C57.5439 66.9533 56.5106 65.9267 55.7239 64.62C54.9372 63.3 54.5439 61.7733 54.5439 60.04C54.5439 58.32 54.9639 56.7933 55.8039 55.46C56.6572 54.1133 57.7839 53.0533 59.1839 52.28C60.5839 51.5067 62.1306 51.12 63.8239 51.12C65.5572 51.12 67.1172 51.5067 68.5039 52.28C69.8906 53.04 70.9906 54.1133 71.8039 55.5C72.6306 56.8867 73.0439 58.5067 73.0439 60.36C73.0439 62.2933 72.7106 63.94 72.0439 65.3C71.3772 66.66 70.5906 67.9 69.6839 69.02L62.4839 78H58.4039ZM63.7639 65.94C64.8706 65.94 65.8706 65.6733 66.7639 65.14C67.6706 64.6067 68.3906 63.8933 68.9239 63C69.4706 62.0933 69.7439 61.0933 69.7439 60C69.7439 58.8933 69.4706 57.8933 68.9239 57C68.3906 56.0933 67.6706 55.3733 66.7639 54.84C65.8706 54.2933 64.8706 54.02 63.7639 54.02C62.6706 54.02 61.6706 54.2933 60.7639 54.84C59.8706 55.3733 59.1572 56.0933 58.6239 57C58.0906 57.8933 57.8239 58.8933 57.8239 60C57.8239 61.0933 58.0906 62.0933 58.6239 63C59.1572 63.8933 59.8706 64.6067 60.7639 65.14C61.6706 65.6733 62.6706 65.94 63.7639 65.94Z" fill="#5CBF80" />
		<path d="M64.4067 10.86L59.8267 13.46V10.1L65.8867 6.6H67.8467V33H64.4067V10.86Z" fill="#979797" />
		<path d="M109.842 53.14C108.735 53.14 107.768 53.3667 106.942 53.82C106.128 54.26 105.442 54.78 104.882 55.38C104.335 55.9667 103.915 56.5067 103.622 57C103.342 57.48 103.188 57.7467 103.162 57.8L100.142 56.48C100.168 56.36 100.295 56.0733 100.522 55.62C100.748 55.1533 101.102 54.6133 101.582 54C102.062 53.3867 102.675 52.7867 103.422 52.2C104.168 51.6 105.068 51.1067 106.122 50.72C107.188 50.32 108.428 50.12 109.842 50.12C111.282 50.12 112.528 50.32 113.582 50.72C114.635 51.12 115.502 51.68 116.182 52.4C116.862 53.12 117.368 53.9733 117.702 54.96C118.035 55.9467 118.202 57.02 118.202 58.18C118.202 59.3 117.935 60.4467 117.402 61.62C116.868 62.7933 116.175 63.9467 115.322 65.08C114.468 66.2 113.548 67.26 112.562 68.26C111.588 69.2467 110.642 70.14 109.722 70.94C108.815 71.74 108.028 72.4 107.362 72.92C106.708 73.4267 106.282 73.76 106.082 73.92H117.982V77H100.742V74.18C101.155 73.86 101.775 73.3733 102.602 72.72C103.442 72.0533 104.388 71.2733 105.442 70.38C106.495 69.4867 107.562 68.52 108.642 67.48C109.722 66.44 110.722 65.38 111.642 64.3C112.562 63.2067 113.302 62.14 113.862 61.1C114.435 60.0467 114.722 59.06 114.722 58.14C114.722 56.3 114.295 55.0067 113.442 54.26C112.602 53.5133 111.402 53.14 109.842 53.14Z" fill="#979797" />
		<path d="M109.842 53.14C108.735 53.14 107.768 53.3667 106.942 53.82C106.128 54.26 105.442 54.78 104.882 55.38C104.335 55.9667 103.915 56.5067 103.622 57C103.342 57.48 103.188 57.7467 103.162 57.8L100.142 56.48C100.168 56.36 100.295 56.0733 100.522 55.62C100.748 55.1533 101.102 54.6133 101.582 54C102.062 53.3867 102.675 52.7867 103.422 52.2C104.168 51.6 105.068 51.1067 106.122 50.72C107.188 50.32 108.428 50.12 109.842 50.12C111.282 50.12 112.528 50.32 113.582 50.72C114.635 51.12 115.502 51.68 116.182 52.4C116.862 53.12 117.368 53.9733 117.702 54.96C118.035 55.9467 118.202 57.02 118.202 58.18C118.202 59.3 117.935 60.4467 117.402 61.62C116.868 62.7933 116.175 63.9467 115.322 65.08C114.468 66.2 113.548 67.26 112.562 68.26C111.588 69.2467 110.642 70.14 109.722 70.94C108.815 71.74 108.028 72.4 107.362 72.92C106.708 73.4267 106.282 73.76 106.082 73.92H117.982V77H100.742V74.18C101.155 73.86 101.775 73.3733 102.602 72.72C103.442 72.0533 104.388 71.2733 105.442 70.38C106.495 69.4867 107.562 68.52 108.642 67.48C109.722 66.44 110.722 65.38 111.642 64.3C112.562 63.2067 113.302 62.14 113.862 61.1C114.435 60.0467 114.722 59.06 114.722 58.14C114.722 56.3 114.295 55.0067 113.442 54.26C112.602 53.5133 111.402 53.14 109.842 53.14Z" fill="#979797" />
		<path d="M16.0136 116.16C16.0936 116.4 16.2469 116.707 16.4736 117.08C16.7136 117.453 17.0403 117.827 17.4536 118.2C17.8669 118.56 18.3869 118.867 19.0136 119.12C19.6403 119.373 20.3936 119.5 21.2736 119.5C23.0469 119.5 24.4336 118.933 25.4336 117.8C26.4336 116.653 26.9269 115.147 26.9136 113.28C26.9003 111.547 26.4403 110.207 25.5336 109.26C24.6269 108.313 23.4203 107.84 21.9136 107.84C20.9803 107.84 20.1603 108.013 19.4536 108.36C18.7603 108.693 18.1936 109.1 17.7536 109.58C17.3269 110.06 17.0269 110.513 16.8536 110.94L13.8336 109.92L16.0936 95.6H29.2536V98.68H19.0536L17.8136 106.9C17.8803 106.78 18.1069 106.567 18.4936 106.26C18.8936 105.94 19.4536 105.647 20.1736 105.38C20.8936 105.1 21.7669 104.96 22.7936 104.96C24.1269 104.96 25.3669 105.26 26.5136 105.86C27.6603 106.447 28.5869 107.347 29.2936 108.56C30.0003 109.76 30.3603 111.28 30.3736 113.12C30.3736 114.96 30.0136 116.587 29.2936 118C28.5869 119.4 27.5603 120.5 26.2136 121.3C24.8669 122.087 23.2603 122.48 21.3936 122.48C20.0203 122.48 18.8336 122.307 17.8336 121.96C16.8469 121.6 16.0203 121.153 15.3536 120.62C14.6869 120.087 14.1669 119.553 13.7936 119.02C13.4203 118.473 13.1603 118.013 13.0136 117.64L16.0136 116.16Z" fill="#979797" />
	</g>
	<defs>
		<clipPath id="clip0_2_2">
			<rect width="128" height="128" rx="10" fill="white" />
		</clipPath>
	</defs>
</svg>
